<?xml version="1.0" encoding="UTF-8" standalone="no"?>
<!DOCTYPE svg PUBLIC "-//W3C//DTD SVG 1.1//EN" "http://www.w3.org/Graphics/SVG/1.1/DTD/svg11.dtd">
<svg width="100%" height="100%" viewBox="0 0 1529 301" version="1.1" xmlns="http://www.w3.org/2000/svg" xmlns:xlink="http://www.w3.org/1999/xlink" xml:space="preserve" xmlns:serif="http://www.serif.com/" style="fill-rule:evenodd;clip-rule:evenodd;stroke-linejoin:round;stroke-miterlimit:2;">
    <g id="Artboard1" transform="matrix(0.926873,0,0,0.626955,-606.402,-870.163)">
        <rect x="654.245" y="1387.92" width="1648.79" height="478.678" style="fill:none;"/>
        <g transform="matrix(1.0789,0,0,1.59501,-112.542,-968.448)">
            <g>
                <g transform="matrix(1,0,0,1,828.07,697.982)">
                    <g transform="matrix(166,0,0,166,159.687,1009.54)">
                        <path d="M0.173,-0.159L0.543,-0.159L0.526,-0.272L0.19,-0.272L0.173,-0.159ZM0.356,-0.473L0.461,-0.23L0.459,-0.194L0.549,-0L0.711,-0L0.356,-0.741L0.001,-0L0.162,-0L0.254,-0.2L0.251,-0.232L0.356,-0.473Z" style="fill-rule:nonzero;"/>
                    </g>
                    <g transform="matrix(166,0,0,166,277.785,1009.54)">
                        <rect x="0.064" y="-0.78" width="0.129" height="0.78" style="fill-rule:nonzero;"/>
                    </g>
                    <g transform="matrix(166,0,0,166,320.589,1009.54)">
                        <path d="M0.281,0.01C0.336,0.01 0.384,-0.001 0.424,-0.023C0.463,-0.044 0.495,-0.077 0.519,-0.12L0.406,-0.155C0.393,-0.133 0.376,-0.116 0.355,-0.105C0.335,-0.094 0.31,-0.089 0.282,-0.089C0.257,-0.089 0.235,-0.094 0.217,-0.106C0.199,-0.117 0.186,-0.133 0.177,-0.155C0.167,-0.176 0.163,-0.202 0.163,-0.233C0.164,-0.265 0.168,-0.292 0.177,-0.313C0.186,-0.335 0.199,-0.351 0.216,-0.362C0.234,-0.373 0.255,-0.379 0.28,-0.379C0.301,-0.379 0.319,-0.374 0.334,-0.365C0.349,-0.356 0.361,-0.343 0.369,-0.327C0.378,-0.311 0.382,-0.291 0.382,-0.269C0.382,-0.264 0.381,-0.258 0.379,-0.252C0.377,-0.245 0.374,-0.239 0.371,-0.235L0.406,-0.281L0.107,-0.281L0.107,-0.201L0.519,-0.201C0.52,-0.205 0.52,-0.21 0.52,-0.217C0.521,-0.223 0.521,-0.23 0.521,-0.236C0.521,-0.285 0.511,-0.327 0.493,-0.362C0.474,-0.397 0.447,-0.424 0.412,-0.442C0.376,-0.461 0.333,-0.47 0.282,-0.47C0.231,-0.47 0.187,-0.46 0.15,-0.441C0.112,-0.421 0.084,-0.393 0.063,-0.358C0.043,-0.322 0.033,-0.279 0.033,-0.23C0.033,-0.182 0.043,-0.139 0.063,-0.104C0.084,-0.068 0.113,-0.04 0.15,-0.02C0.187,0 0.231,0.01 0.281,0.01Z" style="fill-rule:nonzero;"/>
                    </g>
                    <g transform="matrix(166,0,0,166,412.767,1009.54)">
                        <path d="M0.05,-0.638C0.05,-0.617 0.058,-0.6 0.073,-0.586C0.088,-0.572 0.106,-0.565 0.128,-0.565C0.149,-0.565 0.167,-0.572 0.182,-0.586C0.197,-0.6 0.205,-0.617 0.205,-0.638C0.205,-0.659 0.197,-0.677 0.182,-0.69C0.167,-0.704 0.149,-0.711 0.128,-0.711C0.106,-0.711 0.088,-0.704 0.073,-0.69C0.058,-0.677 0.05,-0.659 0.05,-0.638ZM-0.028,0.089L-0.084,0.186C-0.076,0.193 -0.067,0.201 -0.057,0.208C-0.046,0.215 -0.034,0.221 -0.02,0.226C-0.005,0.231 0.012,0.233 0.031,0.233C0.066,0.233 0.096,0.226 0.12,0.213C0.144,0.199 0.162,0.18 0.174,0.155C0.186,0.13 0.192,0.102 0.192,0.069L0.192,-0.46L0.067,-0.46L0.067,0.039C0.067,0.057 0.065,0.071 0.062,0.082C0.058,0.093 0.053,0.101 0.046,0.106C0.039,0.112 0.03,0.114 0.019,0.114C0.009,0.114 0,0.112 -0.008,0.107C-0.015,0.103 -0.022,0.096 -0.028,0.089Z" style="fill-rule:nonzero;"/>
                    </g>
                    <g transform="matrix(166,0,0,166,456.757,1009.54)">
                        <path d="M0.156,-0.143C0.156,-0.156 0.159,-0.167 0.165,-0.176C0.171,-0.185 0.18,-0.192 0.193,-0.197C0.206,-0.202 0.222,-0.205 0.242,-0.205C0.267,-0.205 0.29,-0.201 0.313,-0.195C0.335,-0.188 0.355,-0.178 0.373,-0.165L0.373,-0.225C0.366,-0.233 0.355,-0.242 0.34,-0.25C0.325,-0.259 0.306,-0.266 0.284,-0.272C0.261,-0.278 0.235,-0.281 0.206,-0.281C0.149,-0.281 0.104,-0.268 0.073,-0.242C0.041,-0.216 0.026,-0.181 0.026,-0.136C0.026,-0.105 0.033,-0.078 0.048,-0.057C0.063,-0.035 0.083,-0.018 0.108,-0.007C0.132,0.004 0.159,0.01 0.188,0.01C0.216,0.01 0.243,0.005 0.269,-0.005C0.294,-0.015 0.315,-0.03 0.332,-0.05C0.348,-0.07 0.356,-0.095 0.356,-0.124L0.34,-0.184C0.34,-0.162 0.335,-0.143 0.325,-0.127C0.315,-0.111 0.302,-0.1 0.286,-0.091C0.27,-0.083 0.252,-0.079 0.232,-0.079C0.218,-0.079 0.205,-0.082 0.193,-0.087C0.182,-0.091 0.173,-0.099 0.166,-0.108C0.159,-0.118 0.156,-0.13 0.156,-0.143ZM0.106,-0.33C0.113,-0.334 0.123,-0.34 0.137,-0.347C0.151,-0.353 0.168,-0.359 0.187,-0.364C0.207,-0.369 0.227,-0.371 0.248,-0.371C0.262,-0.371 0.274,-0.37 0.286,-0.367C0.298,-0.364 0.307,-0.36 0.315,-0.354C0.324,-0.348 0.33,-0.341 0.334,-0.332C0.338,-0.323 0.34,-0.312 0.34,-0.299L0.34,-0L0.465,-0L0.465,-0.326C0.465,-0.357 0.456,-0.384 0.439,-0.405C0.422,-0.427 0.398,-0.444 0.367,-0.455C0.336,-0.466 0.302,-0.472 0.262,-0.472C0.219,-0.472 0.18,-0.466 0.146,-0.454C0.111,-0.443 0.082,-0.43 0.058,-0.418L0.106,-0.33Z" style="fill-rule:nonzero;"/>
                    </g>
                    <g transform="matrix(166,0,0,166,543.219,1009.54)">
                        <path d="M0.361,-0.28L0.361,-0L0.495,-0L0.495,-0.294C0.495,-0.349 0.482,-0.392 0.455,-0.424C0.428,-0.455 0.387,-0.47 0.333,-0.47C0.3,-0.47 0.272,-0.464 0.249,-0.45C0.226,-0.436 0.208,-0.416 0.194,-0.39L0.194,-0.46L0.064,-0.46L0.064,-0L0.194,-0L0.194,-0.28C0.194,-0.3 0.197,-0.316 0.205,-0.33C0.212,-0.344 0.223,-0.355 0.237,-0.363C0.251,-0.37 0.267,-0.374 0.285,-0.374C0.312,-0.374 0.331,-0.366 0.343,-0.35C0.355,-0.334 0.361,-0.311 0.361,-0.28Z" style="fill-rule:nonzero;"/>
                    </g>
                    <g transform="matrix(166,0,0,166,636.061,1009.54)">
                        <path d="M0.411,-0.78L0.411,-0L0.541,-0L0.541,-0.78L0.411,-0.78ZM0.033,-0.23C0.033,-0.179 0.043,-0.136 0.064,-0.1C0.085,-0.064 0.112,-0.037 0.146,-0.018C0.18,0.001 0.216,0.01 0.254,0.01C0.293,0.01 0.327,0 0.357,-0.019C0.386,-0.038 0.409,-0.066 0.426,-0.102C0.443,-0.138 0.452,-0.181 0.452,-0.23C0.452,-0.28 0.443,-0.323 0.426,-0.359C0.409,-0.394 0.386,-0.422 0.357,-0.441C0.327,-0.46 0.293,-0.47 0.254,-0.47C0.216,-0.47 0.18,-0.461 0.146,-0.442C0.112,-0.423 0.085,-0.396 0.064,-0.36C0.043,-0.325 0.033,-0.281 0.033,-0.23ZM0.167,-0.23C0.167,-0.258 0.173,-0.281 0.184,-0.301C0.196,-0.321 0.211,-0.336 0.23,-0.347C0.249,-0.358 0.27,-0.363 0.292,-0.363C0.311,-0.363 0.33,-0.358 0.348,-0.347C0.367,-0.337 0.382,-0.322 0.394,-0.302C0.406,-0.282 0.411,-0.258 0.411,-0.23C0.411,-0.202 0.406,-0.178 0.394,-0.158C0.382,-0.138 0.367,-0.123 0.348,-0.113C0.33,-0.102 0.311,-0.097 0.292,-0.097C0.27,-0.097 0.249,-0.102 0.23,-0.113C0.211,-0.124 0.196,-0.139 0.184,-0.159C0.173,-0.179 0.167,-0.203 0.167,-0.23Z" style="fill-rule:nonzero;"/>
                    </g>
                    <g transform="matrix(166,0,0,166,736.017,1009.54)">
                        <path d="M0.191,-0.46L0.064,-0.46L0.064,-0L0.191,-0L0.191,-0.46ZM0.326,-0.325L0.385,-0.435C0.376,-0.447 0.364,-0.456 0.349,-0.462C0.334,-0.468 0.318,-0.471 0.301,-0.471C0.277,-0.471 0.254,-0.462 0.231,-0.446C0.209,-0.429 0.19,-0.406 0.176,-0.378C0.162,-0.349 0.155,-0.317 0.155,-0.28L0.191,-0.244C0.191,-0.266 0.194,-0.285 0.2,-0.3C0.205,-0.316 0.214,-0.329 0.225,-0.337C0.236,-0.346 0.25,-0.35 0.266,-0.35C0.28,-0.35 0.291,-0.348 0.3,-0.343C0.309,-0.339 0.317,-0.333 0.326,-0.325Z" style="fill-rule:nonzero;"/>
                    </g>
                    <g transform="matrix(166,0,0,166,800.781,1009.54)">
                        <path d="M0.156,-0.143C0.156,-0.156 0.159,-0.167 0.165,-0.176C0.171,-0.185 0.18,-0.192 0.193,-0.197C0.206,-0.202 0.222,-0.205 0.242,-0.205C0.267,-0.205 0.29,-0.201 0.313,-0.195C0.335,-0.188 0.355,-0.178 0.373,-0.165L0.373,-0.225C0.366,-0.233 0.355,-0.242 0.34,-0.25C0.325,-0.259 0.306,-0.266 0.284,-0.272C0.261,-0.278 0.235,-0.281 0.206,-0.281C0.149,-0.281 0.104,-0.268 0.073,-0.242C0.041,-0.216 0.026,-0.181 0.026,-0.136C0.026,-0.105 0.033,-0.078 0.048,-0.057C0.063,-0.035 0.083,-0.018 0.108,-0.007C0.132,0.004 0.159,0.01 0.188,0.01C0.216,0.01 0.243,0.005 0.269,-0.005C0.294,-0.015 0.315,-0.03 0.332,-0.05C0.348,-0.07 0.356,-0.095 0.356,-0.124L0.34,-0.184C0.34,-0.162 0.335,-0.143 0.325,-0.127C0.315,-0.111 0.302,-0.1 0.286,-0.091C0.27,-0.083 0.252,-0.079 0.232,-0.079C0.218,-0.079 0.205,-0.082 0.193,-0.087C0.182,-0.091 0.173,-0.099 0.166,-0.108C0.159,-0.118 0.156,-0.13 0.156,-0.143ZM0.106,-0.33C0.113,-0.334 0.123,-0.34 0.137,-0.347C0.151,-0.353 0.168,-0.359 0.187,-0.364C0.207,-0.369 0.227,-0.371 0.248,-0.371C0.262,-0.371 0.274,-0.37 0.286,-0.367C0.298,-0.364 0.307,-0.36 0.315,-0.354C0.324,-0.348 0.33,-0.341 0.334,-0.332C0.338,-0.323 0.34,-0.312 0.34,-0.299L0.34,-0L0.465,-0L0.465,-0.326C0.465,-0.357 0.456,-0.384 0.439,-0.405C0.422,-0.427 0.398,-0.444 0.367,-0.455C0.336,-0.466 0.302,-0.472 0.262,-0.472C0.219,-0.472 0.18,-0.466 0.146,-0.454C0.111,-0.443 0.082,-0.43 0.058,-0.418L0.106,-0.33Z" style="fill-rule:nonzero;"/>
                    </g>
                    <g transform="matrix(166,0,0,166,887.244,1009.54)">
                    </g>
                    <g transform="matrix(166,0,0,166,937.044,1009.54)">
                        <path d="M0.168,-0.575L0.481,-0.575L0.481,-0.7L0.168,-0.7L0.168,-0.575ZM0.168,-0.299L0.471,-0.299L0.471,-0.418L0.168,-0.418L0.168,-0.299ZM0.076,-0.7L0.076,-0L0.214,-0L0.214,-0.7L0.076,-0.7Z" style="fill-rule:nonzero;"/>
                    </g>
                    <g transform="matrix(166,0,0,166,1026.09,1009.54)">
                        <rect x="0.064" y="-0.78" width="0.129" height="0.78" style="fill-rule:nonzero;"/>
                    </g>
                    <g transform="matrix(166,0,0,166,1068.9,1009.54)">
                        <path d="M0.033,-0.23C0.033,-0.183 0.044,-0.141 0.066,-0.105C0.089,-0.068 0.119,-0.04 0.158,-0.02C0.196,-0 0.24,0.01 0.288,0.01C0.337,0.01 0.38,-0 0.419,-0.02C0.457,-0.04 0.487,-0.068 0.51,-0.105C0.532,-0.141 0.543,-0.183 0.543,-0.23C0.543,-0.278 0.532,-0.32 0.51,-0.356C0.487,-0.392 0.457,-0.42 0.419,-0.44C0.38,-0.46 0.337,-0.47 0.288,-0.47C0.24,-0.47 0.196,-0.46 0.158,-0.44C0.119,-0.42 0.089,-0.392 0.066,-0.356C0.044,-0.32 0.033,-0.278 0.033,-0.23ZM0.165,-0.23C0.165,-0.256 0.171,-0.279 0.182,-0.299C0.193,-0.319 0.207,-0.334 0.226,-0.345C0.244,-0.356 0.265,-0.361 0.288,-0.361C0.311,-0.361 0.332,-0.356 0.35,-0.345C0.369,-0.334 0.383,-0.319 0.394,-0.299C0.405,-0.279 0.411,-0.256 0.411,-0.23C0.411,-0.204 0.405,-0.181 0.394,-0.161C0.383,-0.142 0.369,-0.127 0.35,-0.116C0.332,-0.105 0.311,-0.099 0.288,-0.099C0.265,-0.099 0.244,-0.105 0.226,-0.116C0.207,-0.127 0.193,-0.142 0.182,-0.161C0.171,-0.181 0.165,-0.204 0.165,-0.23Z" style="fill-rule:nonzero;"/>
                    </g>
                    <g transform="matrix(166,0,0,166,1164.51,1009.54)">
                        <path d="M0.191,-0.46L0.064,-0.46L0.064,-0L0.191,-0L0.191,-0.46ZM0.326,-0.325L0.385,-0.435C0.376,-0.447 0.364,-0.456 0.349,-0.462C0.334,-0.468 0.318,-0.471 0.301,-0.471C0.277,-0.471 0.254,-0.462 0.231,-0.446C0.209,-0.429 0.19,-0.406 0.176,-0.378C0.162,-0.349 0.155,-0.317 0.155,-0.28L0.191,-0.244C0.191,-0.266 0.194,-0.285 0.2,-0.3C0.205,-0.316 0.214,-0.329 0.225,-0.337C0.236,-0.346 0.25,-0.35 0.266,-0.35C0.28,-0.35 0.291,-0.348 0.3,-0.343C0.309,-0.339 0.317,-0.333 0.326,-0.325Z" style="fill-rule:nonzero;"/>
                    </g>
                    <g transform="matrix(166,0,0,166,1226.79,1009.54)">
                        <path d="M0.281,0.01C0.336,0.01 0.384,-0.001 0.424,-0.023C0.463,-0.044 0.495,-0.077 0.519,-0.12L0.406,-0.155C0.393,-0.133 0.376,-0.116 0.355,-0.105C0.335,-0.094 0.31,-0.089 0.282,-0.089C0.257,-0.089 0.235,-0.094 0.217,-0.106C0.199,-0.117 0.186,-0.133 0.177,-0.155C0.167,-0.176 0.163,-0.202 0.163,-0.233C0.164,-0.265 0.168,-0.292 0.177,-0.313C0.186,-0.335 0.199,-0.351 0.216,-0.362C0.234,-0.373 0.255,-0.379 0.28,-0.379C0.301,-0.379 0.319,-0.374 0.334,-0.365C0.349,-0.356 0.361,-0.343 0.369,-0.327C0.378,-0.311 0.382,-0.291 0.382,-0.269C0.382,-0.264 0.381,-0.258 0.379,-0.252C0.377,-0.245 0.374,-0.239 0.371,-0.235L0.406,-0.281L0.107,-0.281L0.107,-0.201L0.519,-0.201C0.52,-0.205 0.52,-0.21 0.52,-0.217C0.521,-0.223 0.521,-0.23 0.521,-0.236C0.521,-0.285 0.511,-0.327 0.493,-0.362C0.474,-0.397 0.447,-0.424 0.412,-0.442C0.376,-0.461 0.333,-0.47 0.282,-0.47C0.231,-0.47 0.187,-0.46 0.15,-0.441C0.112,-0.421 0.084,-0.393 0.063,-0.358C0.043,-0.322 0.033,-0.279 0.033,-0.23C0.033,-0.182 0.043,-0.139 0.063,-0.104C0.084,-0.068 0.113,-0.04 0.15,-0.02C0.187,0 0.231,0.01 0.281,0.01Z" style="fill-rule:nonzero;"/>
                    </g>
                    <g transform="matrix(166,0,0,166,1318.96,1009.54)">
                        <path d="M0.087,-0.159L0.024,-0.078C0.041,-0.061 0.06,-0.046 0.082,-0.031C0.104,-0.017 0.128,-0.005 0.156,0.003C0.183,0.012 0.213,0.016 0.245,0.016C0.297,0.016 0.339,0.004 0.369,-0.022C0.399,-0.048 0.414,-0.084 0.414,-0.13C0.414,-0.158 0.407,-0.181 0.395,-0.198C0.382,-0.216 0.366,-0.23 0.345,-0.242C0.324,-0.253 0.301,-0.264 0.276,-0.273C0.256,-0.282 0.238,-0.289 0.223,-0.295C0.207,-0.301 0.195,-0.308 0.187,-0.315C0.178,-0.323 0.174,-0.332 0.174,-0.342C0.174,-0.353 0.178,-0.362 0.186,-0.367C0.195,-0.373 0.207,-0.376 0.221,-0.376C0.243,-0.376 0.265,-0.371 0.288,-0.359C0.311,-0.348 0.331,-0.333 0.348,-0.315L0.405,-0.395C0.39,-0.409 0.373,-0.422 0.354,-0.433C0.335,-0.444 0.314,-0.453 0.291,-0.46C0.268,-0.467 0.244,-0.47 0.218,-0.47C0.188,-0.47 0.16,-0.465 0.135,-0.456C0.11,-0.446 0.09,-0.432 0.075,-0.413C0.061,-0.394 0.053,-0.37 0.053,-0.343C0.053,-0.314 0.06,-0.291 0.073,-0.272C0.086,-0.254 0.102,-0.239 0.122,-0.228C0.142,-0.217 0.163,-0.208 0.184,-0.2C0.206,-0.193 0.225,-0.186 0.24,-0.179C0.255,-0.172 0.266,-0.164 0.274,-0.156C0.281,-0.148 0.285,-0.138 0.285,-0.126C0.285,-0.113 0.28,-0.103 0.271,-0.095C0.262,-0.087 0.248,-0.083 0.231,-0.083C0.218,-0.083 0.204,-0.086 0.189,-0.091C0.173,-0.096 0.158,-0.104 0.141,-0.116C0.124,-0.127 0.106,-0.141 0.087,-0.159Z" style="fill-rule:nonzero;"/>
                    </g>
                    <g transform="matrix(166,0,0,166,1391.91,1009.54)">
                    </g>
                </g>
                <g transform="matrix(0.423486,0,0,0.402846,443.513,1021.78)">
                    <g transform="matrix(4.16667,0,0,4.16667,912.764,1346.7)">
                        <path d="M0,-0.06C0.255,-0.047 0.508,-0.022 0.761,0C0.509,-0.028 0.254,-0.041 0,-0.06" style="fill-rule:nonzero;"/>
                    </g>
                    <g transform="matrix(4.16667,0,0,4.16667,905.965,1346.45)">
                        <path d="M0,-0.083C-0.356,-0.083 -0.698,-0.018 -1.051,0C-0.607,-0.034 -0.161,-0.062 0.29,-0.068C0.193,-0.07 0.098,-0.083 0,-0.083" style="fill-rule:nonzero;"/>
                    </g>
                    <g transform="matrix(4.16667,0,0,4.16667,898.414,1346.45)">
                        <path d="M0,0.06C0.254,0.038 0.507,0.013 0.762,0C0.508,0.019 0.252,0.032 0,0.06" style="fill-rule:nonzero;"/>
                    </g>
                    <g transform="matrix(4.16667,0,0,4.16667,908.384,1346.45)">
                        <path d="M0,-0.083C-0.098,-0.083 -0.193,-0.07 -0.29,-0.068C0.161,-0.062 0.607,-0.034 1.051,0C0.698,-0.018 0.356,-0.083 0,-0.083" style="fill-rule:nonzero;"/>
                    </g>
                    <g transform="matrix(4.16667,0,0,4.16667,1153.16,1468.1)">
                        <path d="M0,-9.86L0.022,-9.86C-0.106,-41.944 -26.312,-68.046 -58.396,-68.046C-90.479,-68.046 -116.685,-41.944 -116.813,-9.86L-116.819,58.186L-103.082,58.186L-103.082,-9.8L-103.076,-9.805C-102.978,-34.344 -82.934,-54.308 -58.396,-54.308C-33.857,-54.308 -13.814,-34.344 -13.716,-9.805L-13.71,58.186L0.028,58.186L0.028,-9.832L0,-9.86Z" style="fill-rule:nonzero;"/>
                    </g>
                    <g transform="matrix(4.16667,0,0,4.16667,966.836,1711.09)">
                        <path d="M0,-40.567L-48.682,-40.567L-48.687,0L-35.514,0L-35.513,-27.395L0,-27.395L0,-40.567Z" style="fill-rule:nonzero;"/>
                    </g>
                    <g transform="matrix(4.16667,0,0,4.16667,908.384,1496.36)">
                        <path d="M0,-49.235C-0.098,-49.235 -0.192,-49.221 -0.29,-49.22C-17.032,-49.08 -30.995,-36.962 -34.021,-21.027C-34.41,-18.977 -34.644,-16.873 -34.652,-14.714L-34.652,0L14.029,0L14.029,-13.172L-21.483,-13.172L-21.479,-14.664C-21.434,-25.654 -13.068,-34.725 -2.393,-35.92C-2.141,-35.948 -1.885,-35.961 -1.631,-35.98C-1.279,-35.997 -0.936,-36.063 -0.581,-36.063C-0.482,-36.063 -0.388,-36.049 -0.29,-36.048C-0.193,-36.049 -0.098,-36.063 0,-36.063C0.356,-36.063 0.698,-35.997 1.051,-35.98C1.305,-35.961 1.561,-35.948 1.812,-35.92C10.079,-35.208 17.338,-29.774 20.204,-21.853L20.504,-21.027L34.078,-21.027L33.713,-22.57C29.979,-38.27 16.118,-49.235 0,-49.235" style="fill-rule:nonzero;"/>
                    </g>
                </g>
            </g>
        </g>
    </g>
</svg>
